<?xml version="1.0" encoding="utf-8"?>
<!-- Generator: Adobe Illustrator 15.0.0, SVG Export Plug-In . SVG Version: 6.00 Build 0)  -->
<!DOCTYPE svg PUBLIC "-//W3C//DTD SVG 1.1//EN" "http://www.w3.org/Graphics/SVG/1.1/DTD/svg11.dtd">
<svg version="1.1" xmlns="http://www.w3.org/2000/svg" xmlns:xlink="http://www.w3.org/1999/xlink" x="0px" y="0px" width="100px"
	 height="100px" viewBox="0 0 100 100" enable-background="new 0 0 100 100" xml:space="preserve">
<g id="Layer_1" display="none">
	<g display="inline">
		<path fill="none" d="M50,10.714c-21.663,0-39.287,17.624-39.287,39.286c0,21.662,17.624,39.287,39.287,39.287
			c21.662,0,39.287-17.625,39.287-39.287C89.287,28.338,71.662,10.714,50,10.714z M49.997,58.927c-3.662,0-6.794-2.206-8.175-5.354
			H21.429c-1.971,0-3.572-1.598-3.572-3.572c0-1.974,1.601-3.571,3.572-3.571h20.393c0.9-2.058,2.55-3.707,4.607-4.607V17.857
			c0-1.972,1.598-3.571,3.572-3.571c1.975,0,3.572,1.599,3.572,3.571v23.968c3.148,1.381,5.354,4.517,5.354,8.173
			C58.926,54.927,54.932,58.927,49.997,58.927z"/>
		<path d="M50,0C22.384,0,0,22.384,0,50C0,77.612,22.384,100,50,100c27.615,0,50-22.388,50-50C100,22.384,77.615,0,50,0z M50,89.287
			c-21.663,0-39.287-17.625-39.287-39.287c0-21.662,17.624-39.286,39.287-39.286c21.662,0,39.287,17.624,39.287,39.286
			C89.287,71.662,71.662,89.287,50,89.287z"/>
		<path d="M53.572,41.825V17.857c0-1.972-1.597-3.571-3.572-3.571c-1.974,0-3.572,1.599-3.572,3.571v23.964
			c-2.058,0.9-3.708,2.55-4.607,4.607H21.429c-1.971,0-3.572,1.598-3.572,3.571c0,1.975,1.601,3.572,3.572,3.572h20.393
			c1.381,3.148,4.513,5.354,8.175,5.354c4.935,0,8.929-4,8.929-8.928C58.926,46.342,56.721,43.206,53.572,41.825z"/>
	</g>
</g>
<g id="Layer_5">
	<path fill="#FFFFFF" d="M50,0C22.384,0,0,22.384,0,50c0,27.612,22.384,50,50,50c27.615,0,50-22.388,50-50C100,22.384,77.615,0,50,0
		z"/>
</g>
<g id="Layer_2">
	<path fill="#FF0000" d="M50,0C22.384,0,0,22.384,0,50C0,77.612,22.384,100,50,100c27.615,0,50-22.388,50-50
		C100,22.384,77.615,0,50,0z M50,89.287c-21.663,0-39.287-17.625-39.287-39.287c0-21.662,17.624-39.286,39.287-39.286
		c21.662,0,39.287,17.624,39.287,39.286C89.287,71.662,71.662,89.287,50,89.287z"/>
	<circle fill="#FF0000" cx="50" cy="50" r="9"/>
</g>
<g id="Layer_3" display="none">
	<path display="inline" fill="#FF0000" d="M21.31,53.514c-1.934,0-3.5-1.566-3.5-3.5l0,0c0-1.933,1.566-3.499,3.5-3.499l29,0
		c1.933,0,3.5,1.566,3.5,3.499l0,0c0,1.933-1.567,3.5-3.5,3.5H21.31z"/>
</g>
<g id="Layer_4" display="none">
	<path display="inline" fill="#FF0000" d="M53.499,46.5c0,1.934-1.566,3.5-3.5,3.5l0,0c-1.932,0-3.5-1.566-3.5-3.5v-29
		c0-1.933,1.567-3.5,3.5-3.5l0,0c1.934,0,3.5,1.567,3.5,3.5V46.5z"/>
</g>
</svg>
