<?xml version="1.0" encoding="utf-8"?>
<!-- Generator: Adobe Illustrator 15.0.0, SVG Export Plug-In . SVG Version: 6.00 Build 0)  -->
<!DOCTYPE svg PUBLIC "-//W3C//DTD SVG 1.1//EN" "http://www.w3.org/Graphics/SVG/1.1/DTD/svg11.dtd">
<svg version="1.1" id="Layer_1" xmlns="http://www.w3.org/2000/svg" xmlns:xlink="http://www.w3.org/1999/xlink" x="0px" y="0px"
	 width="91.607px" height="30px" viewBox="0 0 91.607 30" enable-background="new 0 0 91.607 30" xml:space="preserve">
<g>
	<path fill="#F3F2EE" d="M26.897,4.315c-1.411-1.342-3.068-2.397-4.973-3.165C20.021,0.384,17.959,0,15.74,0
		c-2.22,0-4.288,0.39-6.206,1.171c-1.918,0.781-3.583,1.85-4.993,3.206C3.13,5.733,2.021,7.322,1.213,9.144
		C0.404,10.966,0,12.918,0,15v0.082c0,2.083,0.397,4.034,1.192,5.856c0.794,1.823,1.897,3.405,3.308,4.748
		c1.411,1.342,3.068,2.397,4.973,3.164S13.438,30,15.658,30s4.288-0.391,6.206-1.171c1.917-0.781,3.582-1.85,4.993-3.206
		c1.411-1.356,2.521-2.945,3.329-4.767c0.808-1.822,1.212-3.774,1.212-5.856v-0.083c0-2.082-0.397-4.034-1.191-5.856
		C29.411,7.24,28.309,5.658,26.897,4.315z M21.699,15.082c0,0.85-0.137,1.658-0.411,2.425c-0.274,0.768-0.672,1.445-1.192,2.034
		c-0.521,0.589-1.151,1.062-1.89,1.418c-0.74,0.356-1.562,0.534-2.466,0.534c-0.932,0-1.768-0.178-2.507-0.534
		c-0.74-0.356-1.371-0.835-1.891-1.438c-0.521-0.603-0.925-1.294-1.212-2.075S9.699,15.85,9.699,15v-0.083
		c0-0.849,0.137-1.657,0.411-2.424c0.273-0.767,0.671-1.445,1.192-2.034c0.52-0.589,1.15-1.062,1.89-1.418
		c0.74-0.355,1.562-0.534,2.466-0.534c0.931,0,1.767,0.179,2.507,0.534c0.74,0.356,1.37,0.836,1.891,1.438
		c0.52,0.603,0.924,1.294,1.212,2.075c0.288,0.781,0.431,1.596,0.431,2.445V15.082z"/>
	<polygon fill="#F3F2EE" points="63.822,0.616 52.644,0.616 44.466,11.384 44.466,0.616 34.85,0.616 34.85,29.383 44.466,29.383 
		44.466,23.26 46.932,20.26 52.562,29.383 64.027,29.383 53.795,13.109 	"/>
	<polygon fill="#F3F2EE" points="83.068,9.597 83.068,0.621 71.794,0.621 71.794,9.597 63.256,9.597 63.256,20.434 71.794,20.434 
		71.794,29.409 83.068,29.409 83.068,20.434 91.607,20.434 91.607,9.597 	"/>
</g>
</svg>
