<?xml version="1.0" encoding="utf-8"?>
<!-- Generator: Adobe Illustrator 15.0.0, SVG Export Plug-In . SVG Version: 6.00 Build 0)  -->
<!DOCTYPE svg PUBLIC "-//W3C//DTD SVG 1.1//EN" "http://www.w3.org/Graphics/SVG/1.1/DTD/svg11.dtd">
<svg version="1.1" id="Layer_1" xmlns="http://www.w3.org/2000/svg" xmlns:xlink="http://www.w3.org/1999/xlink" x="0px" y="0px"
	 width="85.185px" height="80px" viewBox="-17.576 -16.508 85.185 80" enable-background="new -17.576 -16.508 85.185 80"
	 xml:space="preserve">
<g>
	
		<rect x="-11.77" y="16.168" transform="matrix(-0.9646 0.2638 -0.2638 -0.9646 57.7508 61.2566)" fill="#FFFFFF" width="73.065" height="36.675"/>
	<g>
		<path fill="#4B4D58" d="M67.525,41.667L58.297,7.473c-0.166-0.61-0.571-1.132-1.123-1.449c-0.553-0.319-1.215-0.404-1.827-0.241
			L41.543,9.438L18.735-7.708c0.57-1.3,0.712-2.733,0.335-4.124c-0.743-2.753-3.269-4.676-6.145-4.676
			c-0.552,0-1.106,0.072-1.645,0.213c-1.645,0.434-3.016,1.477-3.867,2.937c-0.854,1.455-1.078,3.156-0.641,4.782
			c0.38,1.413,1.236,2.599,2.36,3.427L-1.984,20.957l-13.806,3.651c-1.282,0.342-2.048,1.65-1.704,2.92l9.23,34.193
			c0.286,1.065,1.258,1.771,2.324,1.771c0.206,0,0.416-0.028,0.624-0.081l71.131-18.824C67.104,44.248,67.871,42.937,67.525,41.667z
			 M10.265-9.499c-0.187-0.705-0.092-1.438,0.278-2.068c0.365-0.63,0.958-1.081,1.668-1.269c0.236-0.062,0.471-0.091,0.713-0.091
			c1.241,0,2.336,0.831,2.655,2.023c0.08,0.292,0.101,0.59,0.077,0.885c-0.026,0.409-0.138,0.813-0.351,1.181
			c-0.333,0.567-0.851,0.978-1.469,1.192l-0.414,0.108c-1.083,0.198-2.168-0.288-2.773-1.163
			C10.482-8.944,10.344-9.206,10.265-9.499z M11.911-3.985c0.327,0.053,0.664,0.084,1.009,0.084c0.553,0,1.109-0.071,1.649-0.214
			c0.88-0.233,1.673-0.651,2.361-1.206l20.929,15.734L1.702,19.983L11.911-3.985z M-4.234,58.183l-7.982-29.582l66.479-17.592
			l7.983,29.583L-4.234,58.183z"/>
		<path fill="#4B4D58" d="M11.202,43.498c-0.405-0.186-0.84-0.225-1.258-0.114l-4.553,1.203c0.053-0.14,0.112-0.283,0.186-0.425
			c0.248-0.501,0.541-1.019,0.881-1.538c0.344-0.539,0.712-1.093,1.1-1.661c0.408-0.593,0.763-1.201,1.064-1.803
			c0.311-0.626,0.536-1.271,0.669-1.916c0.145-0.685,0.117-1.391-0.072-2.095c-0.168-0.624-0.41-1.194-0.73-1.696
			c-0.332-0.525-0.775-0.951-1.313-1.259c-0.528-0.302-1.156-0.483-1.868-0.543c-0.684-0.057-1.494,0.033-2.374,0.266
			c-0.903,0.238-1.663,0.579-2.25,1.013c-0.576,0.426-1.041,0.878-1.383,1.345c-0.337,0.474-0.577,0.942-0.702,1.389
			c-0.13,0.45-0.182,0.811-0.168,1.044c-0.016,0.379,0.071,0.73,0.264,1.041c0.218,0.351,0.588,0.582,1.11,0.69
			c0.577,0.104,1.053,0.01,1.451-0.263c0.368-0.251,0.625-0.565,0.762-0.932c0.12-0.306,0.234-0.575,0.341-0.8
			c0.089-0.186,0.193-0.344,0.31-0.471c0.108-0.118,0.245-0.216,0.405-0.302c0.196-0.099,0.458-0.19,0.774-0.274
			c0.525-0.14,0.926-0.139,1.116-0.004c0.235,0.171,0.412,0.466,0.524,0.887c0.087,0.322,0.054,0.661-0.104,1.028
			c-0.196,0.458-0.472,0.955-0.819,1.476c-0.366,0.552-0.768,1.136-1.206,1.742c-0.461,0.636-0.871,1.309-1.23,1.995
			c-0.36,0.704-0.637,1.46-0.812,2.242c-0.179,0.799-0.176,1.629,0.026,2.474c0.004,0.108,0.033,0.205,0.074,0.286
			c0.184,0.658,0.597,0.951,0.909,1.08c0.247,0.104,0.502,0.157,0.756,0.157c0.164,0,0.331-0.021,0.496-0.065l7.27-1.924
			c0.43-0.111,0.775-0.349,1.032-0.698c0.199-0.268,0.402-0.735,0.22-1.411C11.918,43.955,11.509,43.637,11.202,43.498z"/>
		<path fill="#4B4D58" d="M23.52,36.407l-0.15,0.039l-0.604-2.245c-0.08-0.298-0.293-0.715-0.854-1.01
			c-0.424-0.227-0.914-0.273-1.449-0.136c-0.57,0.152-0.998,0.436-1.263,0.847c-0.347,0.534-0.325,1.008-0.242,1.307l0.603,2.245
			l-2.45,0.648l1.689-7.557c0.137-0.445,0.073-0.9-0.189-1.323c-0.257-0.408-0.65-0.685-1.167-0.82
			c-0.57-0.156-1.079-0.118-1.492,0.098c-0.407,0.213-0.701,0.549-0.88,1.049l-2.222,10.479c-0.071,0.232-0.09,0.454-0.046,0.661
			c0.022,0.12,0.046,0.24,0.081,0.356c0.135,0.496,0.426,0.886,0.839,1.122c0.419,0.239,0.864,0.306,1.288,0.191l5.482-1.45
			l0.455,1.678c0.082,0.303,0.296,0.722,0.871,1.018c0.257,0.129,0.551,0.195,0.86,0.195c0.211,0,0.434-0.031,0.661-0.089
			c0.529-0.142,0.928-0.421,1.191-0.835c0.332-0.53,0.305-0.997,0.226-1.295l-0.456-1.682l0.148-0.038
			c0.59-0.156,1.018-0.434,1.264-0.828c0.253-0.399,0.315-0.878,0.176-1.382C25.598,36.559,24.737,36.085,23.52,36.407z"/>
		<path fill="#4B4D58" d="M33.921,23.872c-0.578-0.037-1.07,0.086-1.467,0.374c-0.53,0.381-0.672,0.841-0.691,1.139l-1.59,14.053
			c-0.022,0.31,0.037,0.774,0.466,1.24c0.336,0.356,0.795,0.562,1.383,0.61c0.015,0.002,0.129,0.004,0.139,0.004
			c0.5,0,0.93-0.14,1.275-0.411c0.393-0.308,0.62-0.705,0.655-1.131l1.583-14.054c0.036-0.435-0.111-0.857-0.429-1.22
			C34.923,24.108,34.478,23.907,33.921,23.872z"/>
		<path fill="#4B4D58" d="M49.125,20.465c-0.418-0.237-0.926-0.287-1.491-0.136l-7.154,1.894c-0.546,0.143-0.955,0.426-1.215,0.84
			c-0.263,0.417-0.329,0.921-0.182,1.452c0.132,0.507,0.439,0.895,0.881,1.128c0.427,0.227,0.931,0.271,1.473,0.125l4.476-1.184
			l-0.774,2.986c-0.268,1.038-0.375,2.122-0.306,3.221c0.06,1.077,0.221,2.075,0.479,2.965l0.622,2.223
			c0.083,0.302,0.3,0.722,0.872,1.016c0.261,0.133,0.552,0.199,0.864,0.199c0.21,0,0.431-0.032,0.658-0.094
			c0.542-0.143,0.954-0.426,1.215-0.838c0.333-0.529,0.308-0.997,0.222-1.301l-0.642-2.303c-0.253-0.869-0.378-1.654-0.371-2.328
			c0.004-0.693,0.081-1.44,0.227-2.211l1.129-5.592c0.068-0.334,0.02-0.678-0.117-0.946C49.831,21.077,49.539,20.703,49.125,20.465z
			"/>
	</g>
</g>
</svg>
