<?xml version="1.0" encoding="utf-8"?>
<!-- Generator: Adobe Illustrator 15.0.0, SVG Export Plug-In . SVG Version: 6.00 Build 0)  -->
<!DOCTYPE svg PUBLIC "-//W3C//DTD SVG 1.1//EN" "http://www.w3.org/Graphics/SVG/1.1/DTD/svg11.dtd">
<svg version="1.1" id="Layer_1" xmlns="http://www.w3.org/2000/svg" xmlns:xlink="http://www.w3.org/1999/xlink" x="0px" y="0px"
	 width="90px" height="60.385px" viewBox="0 0 90 60.385" enable-background="new 0 0 90 60.385" xml:space="preserve">
<g>
	<circle fill="#FFFFFF" cx="29.876" cy="30.079" r="28.083"/>
	<g>
		<path fill="#4B4D58" d="M60.231,14.385c1.943-0.17,2.946-0.857,3.753-1.407c0.713-0.489,1.278-0.875,2.584-0.989
			s1.928,0.169,2.716,0.525c0.891,0.403,1.997,0.904,3.94,0.734c1.943-0.17,2.946-0.856,3.751-1.407
			c0.717-0.489,1.282-0.875,2.586-0.989c1.306-0.114,1.93,0.168,2.718,0.525c0.889,0.402,1.995,0.904,3.938,0.734
			c0.675-0.059,1.172-0.653,1.113-1.326c-0.058-0.672-0.652-1.17-1.325-1.111c-1.304,0.114-1.928-0.168-2.718-0.525
			c-0.889-0.402-1.997-0.904-3.938-0.733c-1.943,0.169-2.948,0.855-3.753,1.406c-0.715,0.488-1.278,0.875-2.586,0.989
			c-1.304,0.114-1.928-0.168-2.718-0.525c-0.889-0.402-1.995-0.904-3.937-0.733c-1.944,0.169-2.947,0.855-3.752,1.406
			c-0.716,0.488-1.28,0.875-2.586,0.989c-1.182,0.103-1.806-0.119-2.498-0.428c0.637,0.931,1.228,1.897,1.77,2.895
			C59.582,14.422,59.894,14.414,60.231,14.385z"/>
		<path fill="#4B4D58" d="M86.539,15.765c-1.304,0.114-1.93-0.168-2.718-0.524c-0.889-0.403-1.997-0.905-3.94-0.734
			c-1.943,0.17-2.946,0.856-3.752,1.407c-0.714,0.489-1.278,0.874-2.585,0.988c-1.304,0.114-1.928-0.168-2.719-0.524
			c-0.888-0.404-1.996-0.905-3.938-0.734c-1.942,0.169-2.945,0.856-3.75,1.407c-0.637,0.434-1.155,0.785-2.178,0.938
			c0.303,0.765,0.576,1.544,0.825,2.335c1.298-0.277,2.08-0.811,2.732-1.255c0.713-0.489,1.278-0.875,2.584-0.99
			c1.304-0.114,1.927,0.168,2.716,0.526c0.891,0.402,1.996,0.903,3.94,0.733c1.943-0.17,2.946-0.855,3.751-1.406
			c0.717-0.49,1.28-0.876,2.586-0.99s1.93,0.169,2.718,0.526c0.889,0.403,1.995,0.903,3.938,0.733
			c0.675-0.059,1.172-0.652,1.113-1.325C87.805,16.204,87.212,15.706,86.539,15.765z"/>
		<path fill="#4B4D58" d="M87.07,21.856c-1.302,0.114-1.928-0.168-2.718-0.526c-0.889-0.402-1.995-0.904-3.938-0.733
			c-1.944,0.169-2.946,0.856-3.752,1.406c-0.714,0.489-1.28,0.875-2.585,0.99c-1.304,0.114-1.928-0.168-2.719-0.526
			c-0.888-0.402-1.996-0.904-3.938-0.733c-1.942,0.169-2.947,0.856-3.752,1.406c-0.339,0.232-0.647,0.44-1.018,0.608
			c0.162,0.812,0.29,1.635,0.392,2.47c0.884-0.293,1.485-0.703,2.006-1.058c0.714-0.49,1.28-0.876,2.586-0.99
			c1.304-0.114,1.927,0.169,2.716,0.526c0.889,0.402,1.996,0.903,3.94,0.732c1.943-0.17,2.944-0.855,3.751-1.405
			c0.717-0.489,1.28-0.875,2.586-0.99s1.929,0.168,2.716,0.526c0.891,0.401,1.997,0.903,3.94,0.732
			c0.675-0.059,1.171-0.652,1.113-1.324C88.338,22.294,87.745,21.797,87.07,21.856z"/>
		<path fill="#4B4D58" d="M87.604,27.947c-1.304,0.114-1.928-0.168-2.718-0.525c-0.889-0.403-1.995-0.904-3.938-0.733
			c-1.944,0.17-2.946,0.854-3.752,1.406c-0.714,0.489-1.28,0.875-2.586,0.989c-1.304,0.114-1.927-0.169-2.718-0.525
			c-0.889-0.404-1.996-0.904-3.938-0.733c-1.941,0.169-2.946,0.854-3.751,1.406c-0.309,0.21-0.593,0.402-0.92,0.562
			c0.013,0.882-0.012,1.758-0.068,2.624c1.086-0.293,1.78-0.765,2.368-1.167c0.714-0.489,1.28-0.875,2.586-0.989
			c1.303-0.114,1.927,0.168,2.716,0.524c0.889,0.403,1.994,0.907,3.938,0.736c1.943-0.17,2.946-0.858,3.753-1.409
			c0.717-0.489,1.28-0.875,2.586-0.989s1.929,0.169,2.716,0.525c0.891,0.403,1.996,0.906,3.94,0.735
			c0.673-0.059,1.171-0.653,1.113-1.326C88.871,28.386,88.277,27.888,87.604,27.947z"/>
		<path fill="#4B4D58" d="M88.137,34.038c-1.304,0.112-1.928-0.168-2.719-0.525c-0.888-0.402-1.994-0.905-3.938-0.734
			c-1.944,0.169-2.947,0.857-3.752,1.409c-0.715,0.485-1.28,0.874-2.586,0.986c-1.304,0.115-1.927-0.167-2.718-0.522
			c-0.889-0.402-1.996-0.906-3.938-0.736c-1.941,0.171-2.946,0.855-3.751,1.407c-0.599,0.406-1.096,0.739-2,0.906
			c-0.158,0.856-0.349,1.701-0.569,2.531c0.065-0.003,0.13-0.007,0.197-0.015c1.944-0.17,2.946-0.854,3.752-1.403
			c0.714-0.489,1.28-0.876,2.585-0.989c1.304-0.114,1.928,0.166,2.717,0.525c0.889,0.402,1.994,0.903,3.938,0.732
			c1.943-0.17,2.946-0.855,3.753-1.407c0.716-0.489,1.28-0.874,2.586-0.988s1.929,0.169,2.716,0.524
			c0.891,0.402,1.996,0.903,3.94,0.732c0.673-0.058,1.171-0.649,1.113-1.323C89.403,34.478,88.811,33.979,88.137,34.038z"/>
		<path fill="#4B4D58" d="M88.669,40.129c-1.303,0.114-1.927-0.169-2.718-0.527c-0.889-0.399-1.996-0.903-3.938-0.732
			c-1.943,0.17-2.946,0.855-3.751,1.406c-0.715,0.49-1.28,0.876-2.586,0.99c-1.304,0.114-1.929-0.168-2.718-0.525
			c-0.889-0.402-1.996-0.905-3.938-0.734c-1.943,0.168-2.946,0.857-3.751,1.405c-0.717,0.489-1.28,0.877-2.586,0.991
			c-0.72,0.063-1.229,0.002-1.678-0.123c-0.303,0.768-0.633,1.52-0.987,2.258c0.723,0.241,1.626,0.409,2.879,0.301
			c1.943-0.171,2.946-0.855,3.752-1.407c0.714-0.487,1.278-0.874,2.583-0.988c1.306-0.114,1.93,0.169,2.719,0.524
			c0.888,0.402,1.994,0.902,3.938,0.732c1.944-0.171,2.947-0.853,3.754-1.403c0.716-0.489,1.28-0.876,2.584-0.99
			c1.306-0.114,1.931,0.167,2.718,0.526c0.891,0.402,1.996,0.902,3.94,0.732c0.672-0.061,1.171-0.653,1.111-1.324
			C89.937,40.566,89.344,40.069,88.669,40.129z"/>
		<path fill="#4B4D58" d="M27.559,0.116C10.975,1.566-1.334,16.239,0.116,32.823c1.45,16.582,16.123,28.896,32.707,27.445
			c16.583-1.451,28.893-16.125,27.443-32.708C58.815,10.977,44.145-1.334,27.559,0.116z M32.449,56.004
			c-14.234,1.243-26.825-9.32-28.07-23.554C3.135,18.217,13.699,5.625,27.933,4.379c14.231-1.245,26.824,9.322,28.068,23.555
			C57.246,42.165,46.681,54.758,32.449,56.004z"/>
		<path fill="#4B4D58" d="M46.881,28.732c-0.806-9.204-8.947-16.035-18.15-15.23c-9.202,0.805-16.034,8.946-15.229,18.15
			c0.805,9.202,8.948,16.032,18.15,15.228C40.854,46.074,47.686,37.934,46.881,28.732z M31.278,42.618
			c-6.852,0.599-12.914-4.487-13.512-11.34c-0.6-6.852,4.486-12.913,11.338-13.513c6.852-0.599,12.914,4.487,13.514,11.339
			C43.216,35.957,38.13,42.019,31.278,42.618z"/>
		<path fill="#4B4D58" d="M19.153,13.215c0.183-0.016,0.366-0.074,0.533-0.177c0.484-0.296,0.986-0.577,1.496-0.832
			c0.604-0.303,0.849-1.038,0.546-1.641c-0.303-0.604-1.037-0.847-1.641-0.545c-0.571,0.287-1.137,0.601-1.681,0.933
			c-0.575,0.354-0.754,1.107-0.401,1.684C18.255,13.044,18.707,13.254,19.153,13.215z"/>
		<path fill="#4B4D58" d="M49.559,24.764c0.152,0.55,0.283,1.112,0.39,1.669c0.118,0.622,0.689,1.045,1.306,0.992
			c0.042-0.004,0.082-0.009,0.123-0.017c0.664-0.126,1.099-0.766,0.974-1.429c-0.119-0.626-0.265-1.256-0.437-1.872
			c-0.18-0.65-0.857-1.032-1.507-0.85C49.758,23.44,49.377,24.114,49.559,24.764z"/>
		<path fill="#4B4D58" d="M13.338,18.471c0.33-0.029,0.649-0.192,0.865-0.477c0.347-0.452,0.714-0.896,1.097-1.317
			c0.453-0.5,0.417-1.273-0.083-1.727c-0.502-0.454-1.274-0.416-1.728,0.084c-0.43,0.472-0.843,0.969-1.229,1.477
			c-0.41,0.537-0.307,1.304,0.23,1.713C12.741,18.417,13.044,18.497,13.338,18.471z"/>
		<path fill="#4B4D58" d="M10.163,31.991l-0.005-0.047c-0.049-0.571-0.076-1.147-0.078-1.714c0-0.674-0.549-1.221-1.226-1.219
			s-1.22,0.551-1.219,1.227c0.002,0.635,0.031,1.28,0.087,1.918l0.003,0.047c0.06,0.675,0.653,1.172,1.325,1.113
			C9.722,33.259,10.221,32.664,10.163,31.991z"/>
		<path fill="#4B4D58" d="M33.976,10.436c0.558,0.107,1.119,0.238,1.666,0.394c0.147,0.04,0.295,0.053,0.437,0.04
			c0.493-0.042,0.93-0.382,1.072-0.886c0.183-0.651-0.194-1.325-0.845-1.509c-0.615-0.173-1.246-0.322-1.871-0.441
			c-0.666-0.127-1.306,0.309-1.431,0.971C32.877,9.669,33.312,10.31,33.976,10.436z"/>
		<path fill="#4B4D58" d="M11.463,37.534c-0.245-0.627-0.954-0.939-1.583-0.69c-0.629,0.244-0.939,0.955-0.693,1.584
			c0.232,0.594,0.495,1.188,0.778,1.759c0.229,0.465,0.716,0.719,1.204,0.677c0.147-0.015,0.293-0.055,0.435-0.123
			c0.604-0.298,0.852-1.034,0.553-1.64C11.905,38.593,11.671,38.067,11.463,37.534z"/>
		<path fill="#4B4D58" d="M47.261,19.554c0.253,0.403,0.7,0.609,1.145,0.57c0.187-0.017,0.374-0.075,0.542-0.181
			c0.571-0.357,0.747-1.111,0.39-1.684c-0.337-0.541-0.705-1.075-1.088-1.587c-0.406-0.54-1.173-0.65-1.711-0.245
			c-0.541,0.406-0.649,1.172-0.247,1.712C46.636,18.597,46.962,19.072,47.261,19.554z"/>
		<path fill="#4B4D58" d="M40.85,13.138c0.482,0.304,0.959,0.63,1.415,0.971c0.25,0.19,0.551,0.267,0.839,0.241
			c0.333-0.029,0.655-0.194,0.872-0.483c0.406-0.54,0.297-1.306-0.243-1.713c-0.51-0.382-1.043-0.749-1.585-1.089
			c-0.573-0.358-1.327-0.184-1.685,0.387C40.104,12.025,40.278,12.779,40.85,13.138z"/>
		<path fill="#4B4D58" d="M26.473,10.422c0.037-0.004,0.075-0.009,0.113-0.016c0.558-0.102,1.129-0.18,1.701-0.235
			c0.671-0.064,1.164-0.661,1.101-1.333c-0.063-0.668-0.656-1.16-1.324-1.102c-0.003,0-0.007,0-0.011,0.001
			C27.416,7.798,26.774,7.887,26.15,8c-0.666,0.121-1.106,0.756-0.986,1.421C25.278,10.049,25.851,10.477,26.473,10.422z"/>
		<path fill="#4B4D58" d="M10.718,21.386c-0.629-0.244-1.338,0.071-1.579,0.7c-0.232,0.597-0.437,1.21-0.617,1.824
			c-0.188,0.648,0.185,1.327,0.834,1.515c0.149,0.043,0.301,0.057,0.448,0.044c0.487-0.042,0.923-0.38,1.068-0.878
			c0.158-0.546,0.341-1.092,0.547-1.624C11.663,22.336,11.349,21.629,10.718,21.386z"/>
		<path fill="#4B4D58" d="M49.804,38.681c-0.603-0.305-1.339-0.062-1.642,0.542c-0.257,0.509-0.54,1.014-0.836,1.497
			c-0.355,0.575-0.174,1.329,0.401,1.682c0.229,0.145,0.491,0.199,0.745,0.178c0.371-0.033,0.725-0.234,0.936-0.577
			c0.335-0.544,0.649-1.106,0.938-1.679C50.65,39.721,50.407,38.984,49.804,38.681z"/>
		<path fill="#4B4D58" d="M37.392,48.974c-0.533,0.205-1.079,0.387-1.625,0.542c-0.649,0.188-1.024,0.863-0.839,1.513
			c0.167,0.573,0.709,0.932,1.282,0.881c0.076-0.007,0.154-0.02,0.232-0.042c0.613-0.177,1.228-0.382,1.824-0.61
			c0.631-0.241,0.946-0.946,0.705-1.578C38.728,49.048,38.023,48.729,37.392,48.974z"/>
		<path fill="#4B4D58" d="M51.544,31.024c-0.671-0.062-1.27,0.429-1.333,1.103c-0.054,0.566-0.134,1.136-0.235,1.697
			c-0.121,0.664,0.317,1.302,0.982,1.422c0.111,0.02,0.22,0.025,0.327,0.015c0.536-0.046,0.995-0.446,1.095-0.997
			c0.116-0.63,0.205-1.27,0.265-1.904C52.71,31.685,52.217,31.09,51.544,31.024z"/>
		<path fill="#4B4D58" d="M43.684,45.103c-0.422,0.385-0.867,0.753-1.318,1.097c-0.537,0.41-0.64,1.177-0.232,1.714
			c0.265,0.347,0.678,0.512,1.081,0.477c0.223-0.02,0.442-0.1,0.634-0.244c0.506-0.387,1.003-0.798,1.478-1.229
			c0.501-0.453,0.539-1.228,0.086-1.727C44.957,44.689,44.184,44.649,43.684,45.103z"/>
		<path fill="#4B4D58" d="M15.381,43.797c-0.457-0.497-1.229-0.529-1.726-0.07c-0.497,0.457-0.529,1.229-0.073,1.728
			c0.434,0.472,0.891,0.929,1.36,1.358c0.263,0.241,0.604,0.347,0.934,0.317c0.293-0.025,0.58-0.16,0.794-0.392
			c0.457-0.501,0.424-1.273-0.074-1.729C16.177,44.624,15.768,44.218,15.381,43.797z"/>
		<path fill="#4B4D58" d="M22.866,48.925c-0.529-0.207-1.057-0.44-1.568-0.694c-0.607-0.299-1.34-0.049-1.639,0.557
			c-0.299,0.602-0.051,1.338,0.555,1.636c0.575,0.282,1.166,0.546,1.759,0.777c0.181,0.071,0.372,0.097,0.553,0.082
			c0.448-0.04,0.858-0.326,1.032-0.772C23.804,49.882,23.494,49.172,22.866,48.925z"/>
		<path fill="#4B4D58" d="M30.121,50.303c-0.571-0.002-1.148-0.029-1.71-0.076c-0.673-0.062-1.268,0.438-1.326,1.109
			c-0.06,0.673,0.437,1.266,1.11,1.324c0.633,0.058,1.278,0.087,1.922,0.087c0.037,0,0.073-0.002,0.109-0.004
			c0.624-0.054,1.113-0.576,1.115-1.215C31.343,50.853,30.797,50.303,30.121,50.303z"/>
		<path fill="#4B4D58" d="M35.486,27.581l-3.349,0.293l-0.293-3.351c-0.104-1.177-1.143-2.048-2.319-1.945s-2.047,1.141-1.945,2.318
			l0.293,3.351l-3.351,0.293c-1.177,0.103-2.047,1.14-1.944,2.318c0.103,1.177,1.141,2.049,2.317,1.945l3.351-0.292l0.292,3.347
			c0.104,1.179,1.142,2.05,2.319,1.946s2.049-1.141,1.946-2.319l-0.294-3.348l3.351-0.293c1.177-0.102,2.047-1.143,1.944-2.319
			C37.7,28.348,36.663,27.478,35.486,27.581z"/>
	</g>
</g>
</svg>
